<svg width="23" height="16" viewBox="0 0 23 16" fill="none" xmlns="http://www.w3.org/2000/svg">
<path d="M17.5 14.5C17.8978 14.5 18.2794 14.342 18.5607 14.0607C18.842 13.7794 19 13.3978 19 13C19 12.6022 18.842 12.2206 18.5607 11.9393C18.2794 11.658 17.8978 11.5 17.5 11.5C17.1022 11.5 16.7206 11.658 16.4393 11.9393C16.158 12.2206 16 12.6022 16 13C16 13.3978 16.158 13.7794 16.4393 14.0607C16.7206 14.342 17.1022 14.5 17.5 14.5ZM19 5.5H16.5V8H20.96L19 5.5ZM5.5 14.5C5.89782 14.5 6.27936 14.342 6.56066 14.0607C6.84196 13.7794 7 13.3978 7 13C7 12.6022 6.84196 12.2206 6.56066 11.9393C6.27936 11.658 5.89782 11.5 5.5 11.5C5.10218 11.5 4.72064 11.658 4.43934 11.9393C4.15804 12.2206 4 12.6022 4 13C4 13.3978 4.15804 13.7794 4.43934 14.0607C4.72064 14.342 5.10218 14.5 5.5 14.5ZM19.5 4L22.5 8V13H20.5C20.5 13.7956 20.1839 14.5587 19.6213 15.1213C19.0587 15.6839 18.2956 16 17.5 16C16.7044 16 15.9413 15.6839 15.3787 15.1213C14.8161 14.5587 14.5 13.7956 14.5 13H8.5C8.5 13.7956 8.18393 14.5587 7.62132 15.1213C7.05871 15.6839 6.29565 16 5.5 16C4.70435 16 3.94129 15.6839 3.37868 15.1213C2.81607 14.5587 2.5 13.7956 2.5 13H0.5V2C0.5 0.89 1.39 0 2.5 0H16.5V4H19.5ZM7.5 2V5H4.5V7H7.5V10H9.5V7H12.5V5H9.5V2H7.5Z" fill="black"/>
</svg>
