<svg width="20" height="20" viewBox="0 0 20 20" fill="none" xmlns="http://www.w3.org/2000/svg">
<path d="M6.675 20C5.69167 20 5.05 19.8333 4.75 19.5C4.45 19.1667 3.98334 19 3.35 19C2.86667 19 2.49167 19.1127 2.225 19.338C1.95834 19.5633 1.58334 19.7423 1.1 19.875C0.81667 19.9583 0.562336 19.9 0.337003 19.7C0.11167 19.5 -0.000663717 19.2333 2.94986e-06 18.9C2.94986e-06 18.7 0.0750028 18.5 0.225003 18.3C0.375003 18.1 0.583336 17.9333 0.850003 17.8C1.16667 17.65 1.48767 17.479 1.813 17.287C2.13834 17.095 2.65067 16.9993 3.35 17C4.33334 17 4.975 17.1667 5.275 17.5C5.575 17.8333 6.04167 18 6.675 18C7.30834 18 7.775 17.8333 8.075 17.5C8.375 17.1667 9.01667 17 10 17C10.95 17 11.596 17.1667 11.938 17.5C12.28 17.8333 12.7507 18 13.35 18C13.9833 18 14.45 17.8333 14.75 17.5C15.05 17.1667 15.6917 17 16.675 17C17.375 17 17.8833 17.096 18.2 17.288C18.5167 17.48 18.8333 17.6507 19.15 17.8C19.4167 17.9333 19.625 18.096 19.775 18.288C19.925 18.48 20 18.684 20 18.9C20 19.2333 19.8873 19.496 19.662 19.688C19.4367 19.88 19.1827 19.934 18.9 19.85C18.4167 19.7167 18.046 19.5417 17.788 19.325C17.53 19.1083 17.159 19 16.675 19C16.0583 19 15.5917 19.1667 15.275 19.5C14.9583 19.8333 14.3167 20 13.35 20C12.3833 20 11.7377 19.8333 11.413 19.5C11.0883 19.1667 10.6173 19 10 19C9.36667 19 8.9 19.1667 8.6 19.5C8.3 19.8333 7.65834 20 6.675 20ZM1.1 15.35C0.81667 15.4333 0.562336 15.375 0.337003 15.175C0.11167 14.975 -0.000663717 14.7083 2.94986e-06 14.375C2.94986e-06 14.175 0.0750028 13.979 0.225003 13.787C0.375003 13.595 0.583336 13.4327 0.850003 13.3C1.16667 13.15 1.48334 12.979 1.8 12.787C2.11667 12.595 2.625 12.4993 3.325 12.5C3.425 12.5 3.525 12.5043 3.625 12.513C3.725 12.5217 3.81667 12.534 3.9 12.55L2.95 9.04999L2.2 10.05C2.01667 10.2833 1.79567 10.4167 1.537 10.45C1.27834 10.4833 1.03267 10.4083 0.800003 10.225C0.56667 10.0417 0.437336 9.81233 0.412003 9.53699C0.38667 9.26166 0.466003 9.01599 0.650003 8.79999L6.85 1.12499C7.13334 0.79166 7.48334 0.570659 7.9 0.461993C8.31667 0.353326 8.725 0.374326 9.125 0.524993L18.35 4.04999C18.6167 4.14999 18.8127 4.32499 18.938 4.57499C19.0633 4.82499 19.0673 5.07499 18.95 5.32499C18.8333 5.59166 18.65 5.77933 18.4 5.88799C18.15 5.99666 17.8917 6.00066 17.625 5.89999L16.475 5.42499L18.5 12.95C18.6167 13.0167 18.725 13.0793 18.825 13.138C18.925 13.1967 19.0333 13.2507 19.15 13.3C19.4167 13.4167 19.625 13.575 19.775 13.775C19.925 13.975 20 14.1833 20 14.4C20 14.7333 19.8873 14.996 19.662 15.188C19.4367 15.38 19.1827 15.434 18.9 15.35C18.4167 15.2167 18.0417 15.0417 17.775 14.825C17.5083 14.6083 17.1417 14.5 16.675 14.5C16.0417 14.5 15.575 14.6667 15.275 15C14.975 15.3333 14.3333 15.5 13.35 15.5C12.4 15.5 11.7543 15.3333 11.413 15C11.0717 14.6667 10.6007 14.5 10 14.5C9.36667 14.5 8.9 14.6667 8.6 15C8.3 15.3333 7.65834 15.5 6.675 15.5C5.725 15.5 5.08334 15.3333 4.75 15C4.41667 14.6667 3.95 14.5 3.35 14.5C2.9 14.5 2.53334 14.6083 2.25 14.825C1.96667 15.0417 1.58334 15.2167 1.1 15.35ZM13.45 13.475L12.05 8.17499L8.175 9.19999L9.1 12.6C9.23334 12.5667 9.371 12.5417 9.513 12.525C9.655 12.5083 9.81734 12.5 10 12.5C10.95 12.5 11.6293 12.6833 12.038 13.05C12.4467 13.4167 12.9173 13.5583 13.45 13.475Z" fill="black"/>
</svg>
