<svg width="23" height="18" viewBox="0 0 23 18" fill="none" xmlns="http://www.w3.org/2000/svg">
<path d="M17.1667 0.5C15.2167 0.5 13.1167 0.9 11.6667 2C10.2167 0.9 8.11666 0.5 6.16666 0.5C4.71666 0.5 3.17666 0.72 1.88666 1.29C1.15666 1.62 0.666656 2.33 0.666656 3.14V14.42C0.666656 15.72 1.88666 16.68 3.14666 16.36C4.12666 16.11 5.16666 16 6.16666 16C7.72666 16 9.38666 16.26 10.7267 16.92C11.3267 17.22 12.0067 17.22 12.5967 16.92C13.9367 16.25 15.5967 16 17.1567 16C18.1567 16 19.1967 16.11 20.1767 16.36C21.4367 16.69 22.6567 15.73 22.6567 14.42V3.14C22.6567 2.33 22.1667 1.62 21.4367 1.29C20.1567 0.72 18.6167 0.5 17.1667 0.5ZM20.6667 13.23C20.6667 13.86 20.0867 14.32 19.4667 14.21C18.7167 14.07 17.9367 14.01 17.1667 14.01C15.4667 14.01 13.0167 14.66 11.6667 15.51V4C13.0167 3.15 15.4667 2.5 17.1667 2.5C18.0867 2.5 18.9967 2.59 19.8667 2.78C20.3267 2.88 20.6667 3.29 20.6667 3.76V13.23Z" fill="#C9C9C9"/>
</svg>
