<svg width="16" height="18" viewBox="0 0 16 18" fill="none" xmlns="http://www.w3.org/2000/svg">
<path d="M0 11C0 9.25 0.416667 7.69167 1.25 6.325C2.08333 4.95833 3 3.80833 4 2.875C5 1.94167 5.91667 1.229 6.75 0.737L8 0V3.3C8 3.91667 8.20833 4.404 8.625 4.762C9.04167 5.12 9.50833 5.29933 10.025 5.3C10.3083 5.3 10.5793 5.24167 10.838 5.125C11.0967 5.00833 11.334 4.81667 11.55 4.55L12 4C13.2 4.7 14.1667 5.67067 14.9 6.912C15.6333 8.15333 16 9.516 16 11C16 12.4667 15.6417 13.8043 14.925 15.013C14.2083 16.2217 13.2667 17.1753 12.1 17.874C12.3833 17.474 12.6043 17.0363 12.763 16.561C12.9217 16.0857 13.0007 15.582 13 15.05C13 14.3833 12.875 13.754 12.625 13.162C12.375 12.57 12.0167 12.041 11.55 11.575L8 8.1L4.475 11.575C3.99167 12.0583 3.625 12.5917 3.375 13.175C3.125 13.7583 3 14.3833 3 15.05C3 15.5833 3.07933 16.0877 3.238 16.563C3.39667 17.0383 3.61733 17.4757 3.9 17.875C2.73333 17.175 1.79167 16.2207 1.075 15.012C0.358333 13.8033 0 12.466 0 11ZM8 10.9L10.125 12.975C10.4083 13.2583 10.625 13.575 10.775 13.925C10.925 14.275 11 14.65 11 15.05C11 15.8667 10.7083 16.5623 10.125 17.137C9.54167 17.7117 8.83333 17.9993 8 18C7.16667 18 6.45833 17.7123 5.875 17.137C5.29167 16.5617 5 15.866 5 15.05C5 14.6667 5.075 14.2957 5.225 13.937C5.375 13.5783 5.59167 13.2577 5.875 12.975L8 10.9Z" fill="black"/>
</svg>
