<svg width="24" height="20" viewBox="0 0 24 20" fill="none" xmlns="http://www.w3.org/2000/svg">
<path d="M5.37186 8.67651L4.90611 10.4204C4.79323 10.8435 4.76998 11.2813 4.81573 11.7138L3.49573 12.8037C3.24936 13.0072 2.88411 12.7876 2.94748 12.4739L3.52648 9.59004C3.56623 9.39221 3.42673 9.20342 3.22648 9.18424L0.306732 8.90029C-0.0108926 8.86945 -0.114393 8.45537 0.151482 8.27823L2.59461 6.64976C2.76186 6.53806 2.79636 6.30564 2.66886 6.14994L0.804732 3.87798C0.601857 3.63089 0.820857 3.26495 1.13398 3.32814L4.00948 3.90882C4.20673 3.94868 4.39498 3.80878 4.41448 3.60795L4.69761 0.679709C4.72836 0.360785 5.14123 0.25736 5.31823 0.524008L6.94198 2.97386C7.05336 3.1416 7.28511 3.1762 7.44036 3.04833L9.70536 1.17878C9.95173 0.975316 10.3166 1.19495 10.2536 1.50861L9.82873 3.62073C9.72711 3.73544 9.62511 3.84977 9.53211 3.97426L8.32648 5.59032L7.92486 6.12888C6.69748 6.45833 5.70561 7.42752 5.37186 8.67651ZM23.9182 13.6601L23.4525 15.4036C23.3351 15.8429 23.1007 16.2164 22.7944 16.5078C22.6924 16.6047 22.5825 16.6927 22.4659 16.7711L21.9412 18.7354C21.8985 18.896 21.825 19.0401 21.7294 19.1634C21.4417 19.5335 20.9516 19.7155 20.4716 19.5865L19.3125 19.2751C18.6724 19.1032 18.2925 18.4432 18.4639 17.8012L18.7744 16.6387L9.50136 14.1467L9.19086 15.3092C9.01948 15.9512 8.36136 16.3322 7.72123 16.1603L6.56211 15.8489C6.08211 15.7199 5.74836 15.3164 5.68386 14.8519C5.66248 14.697 5.67073 14.5352 5.71348 14.375L6.23811 12.4107C6.17605 12.2843 6.12475 12.1528 6.08473 12.0177C5.96473 11.6119 5.94786 11.1707 6.06523 10.7315L6.53098 8.98754C6.73011 8.24288 7.25698 7.67762 7.91436 7.40006C8.1354 7.30665 8.36909 7.24682 8.60773 7.22255L9.28761 6.31128L10.4932 4.69522C10.6226 4.52185 10.7629 4.3605 10.9132 4.21232C11.2132 3.91559 11.5519 3.66925 11.916 3.47857C12.0982 3.38304 12.2869 3.30143 12.4804 3.23449C12.8677 3.09985 13.275 3.02275 13.6894 3.00733C14.1037 2.99191 14.526 3.03817 14.943 3.15025L19.5435 4.38645C19.9605 4.49853 20.349 4.67003 20.7004 4.89154C21.2247 5.22174 21.6691 5.66499 22.0012 6.18905C22.332 6.71107 22.5502 7.31131 22.6267 7.9563L22.8652 9.96049L22.9999 11.0906C23.3893 11.3726 23.6861 11.7645 23.8526 12.2163C24.0172 12.6631 24.051 13.1636 23.9182 13.6601ZM9.58423 9.18536C8.88861 8.99845 8.30136 9.3373 8.11536 10.0327C7.92936 10.7281 8.26948 11.3159 8.96473 11.5028C9.66036 11.6897 10.6725 12.0861 10.8581 11.3908C11.0441 10.6954 10.2795 9.37228 9.58423 9.18536ZM20.4821 10.2448L20.2436 8.24063C20.2219 8.05747 20.1727 7.88221 20.1004 7.71936C19.8829 7.23082 19.4554 6.85398 18.9221 6.71069L14.3216 5.47448C13.9741 5.38112 13.6067 5.39432 13.2667 5.51237C12.9268 5.63042 12.6299 5.8479 12.4144 6.13678L11.2087 7.75284L17.6587 9.48586L20.4821 10.2448ZM21.1755 12.3001C20.4799 12.1132 19.158 12.8759 18.9724 13.571C18.7867 14.2663 19.8607 14.4307 20.5564 14.6176C21.252 14.8045 21.8392 14.4657 22.0252 13.7703C22.2109 13.0753 21.8711 12.4871 21.1755 12.3001Z" fill="black"/>
</svg>
