<svg width="19" height="18" viewBox="0 0 19 18" fill="none" xmlns="http://www.w3.org/2000/svg">
<path d="M13.3333 11H12.5433L12.2633 10.73C13.2772 9.55402 13.8344 8.0527 13.8333 6.5C13.8333 5.21442 13.4521 3.95772 12.7379 2.8888C12.0237 1.81988 11.0085 0.986756 9.82077 0.494786C8.63305 0.00281635 7.32612 -0.125905 6.06524 0.124899C4.80437 0.375703 3.64618 0.994767 2.73714 1.90381C1.8281 2.81285 1.20903 3.97104 0.958227 5.23192C0.707423 6.49279 0.836145 7.79973 1.32811 8.98744C1.82008 10.1752 2.65321 11.1903 3.72212 11.9046C4.79104 12.6188 6.04775 13 7.33333 13C8.94333 13 10.4233 12.41 11.5633 11.43L11.8333 11.71V12.5L16.8333 17.49L18.3233 16L13.3333 11ZM7.33333 11C4.84333 11 2.83333 8.99 2.83333 6.5C2.83333 4.01 4.84333 2 7.33333 2C9.82333 2 11.8333 4.01 11.8333 6.5C11.8333 8.99 9.82333 11 7.33333 11Z" fill="#C9C9C9"/>
</svg>
