<svg width="27" height="28" viewBox="0 0 27 28" fill="none" xmlns="http://www.w3.org/2000/svg">
<path fill-rule="evenodd" clip-rule="evenodd" d="M26.8333 14C26.8333 6.63601 20.864 0.666672 13.5 0.666672C6.13599 0.666672 0.166656 6.63601 0.166656 14C0.166656 21.364 6.13599 27.3333 13.5 27.3333C20.864 27.3333 26.8333 21.364 26.8333 14ZM13.5 6.33334C13.7652 6.33334 14.0196 6.4387 14.2071 6.62623C14.3946 6.81377 14.5 7.06812 14.5 7.33334V15.3333C14.5 15.5986 14.3946 15.8529 14.2071 16.0404C14.0196 16.228 13.7652 16.3333 13.5 16.3333C13.2348 16.3333 12.9804 16.228 12.7929 16.0404C12.6053 15.8529 12.5 15.5986 12.5 15.3333V7.33334C12.5 7.06812 12.6053 6.81377 12.7929 6.62623C12.9804 6.4387 13.2348 6.33334 13.5 6.33334ZM13.5 20.6667C13.8536 20.6667 14.1928 20.5262 14.4428 20.2761C14.6928 20.0261 14.8333 19.687 14.8333 19.3333C14.8333 18.9797 14.6928 18.6406 14.4428 18.3905C14.1928 18.1405 13.8536 18 13.5 18C13.1464 18 12.8072 18.1405 12.5572 18.3905C12.3071 18.6406 12.1667 18.9797 12.1667 19.3333C12.1667 19.687 12.3071 20.0261 12.5572 20.2761C12.8072 20.5262 13.1464 20.6667 13.5 20.6667Z" fill="white"/>
</svg>
